<svg xmlns="http://www.w3.org/2000/svg" width="848" height="487" viewBox="0 0 848 487">
    <g fill="none" fill-rule="evenodd">
        <path fill="#324F46" d="M1295.074 526.967l553 319.901c30.898 17.875 49.926 50.864 49.926 86.56v640.144c0 35.696-19.028 68.685-49.926 86.56l-553 319.901c-30.978 17.92-69.17 17.92-100.148 0l-553-319.901c-30.898-17.875-49.926-50.864-49.926-86.56V933.428c0-35.696 19.028-68.685 49.926-86.56l553-319.901c30.978-17.92 69.17-17.92 100.148 0z" transform="translate(-592 -513)"/>
        <path fill="#3C8559" d="M1696.602 527.006l552.5 319.857c30.883 17.879 49.898 50.859 49.898 86.543v640.188c0 35.684-19.015 68.664-49.898 86.543l-552.5 319.857c-30.992 17.943-69.212 17.943-100.204 0l-552.5-319.857c-30.883-17.879-49.898-50.859-49.898-86.543V933.406c0-35.684 19.015-68.664 49.898-86.543l552.5-319.857c30.992-17.943 69.212-17.943 100.204 0z" transform="translate(-594 -513)"/>
    </g>
</svg>
